<?xml version='1.0' encoding='utf-8'?>
<svg xmlns="http://www.w3.org/2000/svg" width="1920" height="1080" viewBox="0 0 1920 1080" data-theme="light" data-semantic-intent="compare" data-relation-type="comparison" data-site-visual-identity="signal-cobalt">
  <style>
        @font-face {
            font-family: 'Inter';
            src: url('assets/fonts/Inter-Regular.ttf') format('truetype');
            font-weight: 400;
            font-style: normal;
            font-display: swap;
        }
        @font-face {
            font-family: 'Inter';
            src: url('assets/fonts/Inter-Bold.ttf') format('truetype');
            font-weight: 600;
            font-style: normal;
            font-display: swap;
        }
        @font-face {
            font-family: 'Inter';
            src: url('assets/fonts/Inter-Bold.ttf') format('truetype');
            font-weight: 800;
            font-style: normal;
            font-display: swap;
        }
        
:root {
    --background: #f8fafc;
    --panel: #ffffff;
    --primary-text: #0f172a;
    --muted-text: #64748b;
    --inverse-text: #ffffff;
    --border: #e2e8f0;
    --shadow-color: #000000;
    --icon-pad-bg: #1e293b;
    --art-glow: #0891b2;
    --art-glow-opacity: 0.10;
    --art-sheen: #ffffff;
    --art-sheen-opacity: 0.34;
    --art-shadow: #0f172a;
    --art-shadow-opacity: 0.14;
    --art-muted-line: #94a3b8;
    --art-panel-tint: #f1f5f9;
    --semantic-risk: #b91c1c;
    --semantic-warning: #c2410c;
    --semantic-uncertain: #a16207;
    --semantic-evidence: #1d4ed8;
    --semantic-claim: #6d28d9;
    --semantic-positive: #15803d;
    --semantic-outcome: #0e7490;
    --font-family: 'Inter', 'Segoe UI', 'Kalam', Roboto, Helvetica, Arial, sans-serif;
    --radius-xl: 16px;
    --font-family-headline: 'Segoe UI Variable Display', 'Aptos Display', 'Inter', 'Segoe UI', Helvetica, Arial, sans-serif;
    --font-family-body: 'Segoe UI Variable Text', 'Aptos', 'Inter', 'Segoe UI', Helvetica, Arial, sans-serif;
    --font-heading: var(--font-family-headline);
    --font-body: var(--font-family-body);
    --font-size-h1: 64px;
    --font-size-h2: 42px;
    --font-size-h3: 29px;
    --font-size-body: 21px;
    --font-size-caption: 17px;
    --secondary-text: var(--muted-text);
    --panel-border: var(--border);
    --font-weight-normal: 400;
    --font-weight-medium: 500;
    --font-weight-semibold: 600;
    --font-weight-bold: 700;
    --spacing-gutter-pct: 0.07;
    --spacing-top-pct: 0.15;
    --spacing-bottom-pct: 0.07;
    --spacing-title-y-pct: 0.055;
    --accent-1: #1d4ed8;
    --accent-2: #2563eb;
    --accent-3: #4f46e5;
    --accent-4: #6d28d9;
    --accent-5: #0369a1;
    --accent-6: #c2410c;
}
:root[data-theme="dark"] {
    --background: #0f172a;
    --panel: #1e293b;
    --primary-text: #f1f5f9;
    --muted-text: #94a3b8;
    --inverse-text: #0f172a;
    --border: #334155;
    --shadow-color: #000000;
    --icon-pad-bg: #1e293b;
    --art-glow: #7dd3fc;
    --art-glow-opacity: 0.18;
    --art-sheen: #ffffff;
    --art-sheen-opacity: 0.18;
    --art-shadow: #000000;
    --art-shadow-opacity: 0.28;
    --art-muted-line: #64748b;
    --art-panel-tint: #1e293b;
    --semantic-risk: #f87171;
    --semantic-warning: #fb923c;
    --semantic-uncertain: #fbbf24;
    --semantic-evidence: #60a5fa;
    --semantic-claim: #c084fc;
    --semantic-positive: #4ade80;
    --semantic-outcome: #22d3ee;
    --accent-1: #93c5fd;
    --accent-2: #60a5fa;
    --accent-3: #818cf8;
    --accent-4: #a78bfa;
    --accent-5: #38bdf8;
    --accent-6: #fb923c;
}
:root[data-theme="light"] {
    --background: #f8fafc;
    --panel: #ffffff;
    --primary-text: #0f172a;
    --muted-text: #64748b;
    --inverse-text: #ffffff;
    --border: #e2e8f0;
    --shadow-color: #000000;
    --icon-pad-bg: #1e293b;
    --art-glow: #0891b2;
    --art-glow-opacity: 0.10;
    --art-sheen: #ffffff;
    --art-sheen-opacity: 0.34;
    --art-shadow: #0f172a;
    --art-shadow-opacity: 0.14;
    --art-muted-line: #94a3b8;
    --art-panel-tint: #f1f5f9;
    --semantic-risk: #b91c1c;
    --semantic-warning: #c2410c;
    --semantic-uncertain: #a16207;
    --semantic-evidence: #1d4ed8;
    --semantic-claim: #6d28d9;
    --semantic-positive: #15803d;
    --semantic-outcome: #0e7490;
    --accent-1: #1d4ed8;
    --accent-2: #2563eb;
    --accent-3: #4f46e5;
    --accent-4: #6d28d9;
    --accent-5: #0369a1;
    --accent-6: #c2410c;
}</style>
  <rect x="0" y="0" width="1.92E+3" height="1.08E+3" fill="#252a34" stroke="none" id="programmatic_background"/>
  <line id="HEADER_DECOR" x1="960.0" x2="1080.0" y1="135.0" y2="135.0" stroke="var(--accent-1)" stroke-width="6" stroke-linecap="round"/>
  <defs>
    <pattern id="svg78fe30e7-napkin-hatch" patternUnits="userSpaceOnUse" width="12" height="12">
      <path d="M -3 12 L 12 -3 M 0 15 L 15 0" fill="none" stroke="var(--primary-text)" stroke-width="1" stroke-opacity="0.035"/>
    </pattern>
    <filter id="svg78fe30e7-soft-shadow" x="-30%" y="-30%" width="160%" height="160%">
      <feDropShadow dx="0" dy="3" stdDeviation="6" flood-color="#000000" flood-opacity="0.20"/>
    </filter>
    <radialGradient id="svg78fe30e7-universal-edge-vignette" cx="50%" cy="50%" r="72%">
      <stop offset="0%" stop-color="var(--background)" stop-opacity="0"/>
      <stop offset="72%" stop-color="var(--background)" stop-opacity="0.12"/>
      <stop offset="100%" stop-color="var(--primary-text)" stop-opacity="0.08"/>
    </radialGradient>
    <linearGradient id="svg78fe30e7-universal-surface-sheen" x1="0%" y1="0%" x2="100%" y2="100%">
      <stop offset="0%" stop-color="var(--art-sheen)" stop-opacity="var(--art-sheen-opacity)"/>
      <stop offset="46%" stop-color="var(--art-sheen)" stop-opacity="0.035"/>
      <stop offset="100%" stop-color="var(--art-panel-tint)" stop-opacity="0.14"/>
    </linearGradient>
    <radialGradient id="svg78fe30e7-universal-icon-aura" cx="50%" cy="42%" r="64%">
      <stop offset="0%" stop-color="var(--art-glow)" stop-opacity="var(--art-glow-opacity)"/>
      <stop offset="100%" stop-color="var(--background)" stop-opacity="0"/>
    </radialGradient>
    <filter id="svg78fe30e7-text-glow" x="-20%" y="-20%" width="140%" height="140%">
      <feDropShadow dx="0" dy="0" stdDeviation="2" flood-color="#000000" flood-opacity="0.4"/>
    </filter>
    <filter id="svg78fe30e7-shadow" x="-30%" y="-30%" width="160%" height="160%">
      <feDropShadow dx="0" dy="2" stdDeviation="3" flood-color="#000000" flood-opacity="0.08"/>
      <feDropShadow dx="0" dy="6" stdDeviation="10" flood-color="#000000" flood-opacity="0.12"/>
    </filter>
    <marker id="svg78fe30e7-arrowhead" markerWidth="10" markerHeight="7" refX="9" refY="3.5" orient="auto" markerUnits="strokeWidth">
      <polygon points="0 0, 10 3.5, 0 7" fill="var(--muted-text)" opacity="0.6"/>
    </marker>
  </defs>
  <rect id="CANVAS_BG" width="100%" height="100%" fill="var(--background)"/>
  <rect width="100%" height="100%" fill="url(#svg78fe30e7-napkin-hatch)"/>
  <rect id="UNIVERSAL_EDGE_VIGNETTE" width="100%" height="100%" fill="url(#svg78fe30e7-universal-edge-vignette)" opacity="0.62"/>
  <text id="TITLE" x="960.0" y="59" text-anchor="middle" font-size="56" font-weight="800" fill="#0f172a" style="font-size: 69px; font-family: 'Segoe UI Variable Display', 'Aptos Display', 'Inter', 'Segoe UI', Helvetica, Arial, sans-serif; font-weight: 800; font-kerning: normal; font-feature-settings: &quot;kern&quot; 1, &quot;liga&quot; 1; letter-spacing:-1.2px;" data-final-font-size="69">
    <tspan x="960.0" dy="70.47px">Verification Evidence Gaps</tspan>
  </text>
  <rect id="TITLE_FRAME" x="134" y="59" width="1652" height="103" fill="none"/>
  <line x1="687.0" y1="434.0" x2="768.0" y2="434.0" stroke="var(--muted-text)" stroke-width="1.5" stroke-dasharray="8 9" opacity="0.42" stroke-linecap="round"/>
  <circle cx="727.5" cy="434.0" r="22" fill="var(--panel)" fill-opacity="0.86" stroke="var(--muted-text)" stroke-width="1.5" opacity="0.82"/>
  <text x="727.5" y="442.0" text-anchor="middle" font-size="22" font-weight="800" fill="var(--muted-text)" opacity="0.72">VS</text>
  <line x1="1152.0" y1="434.0" x2="1233.0" y2="434.0" stroke="var(--muted-text)" stroke-width="1.5" stroke-dasharray="8 9" opacity="0.42" stroke-linecap="round"/>
  <circle cx="1192.5" cy="434.0" r="22" fill="var(--panel)" fill-opacity="0.86" stroke="var(--muted-text)" stroke-width="1.5" opacity="0.82"/>
  <text x="1192.5" y="442.0" text-anchor="middle" font-size="22" font-weight="800" fill="var(--muted-text)" opacity="0.72">VS</text>
  <line x1="687.0" y1="824.0" x2="768.0" y2="824.0" stroke="var(--muted-text)" stroke-width="1.5" stroke-dasharray="8 9" opacity="0.42" stroke-linecap="round"/>
  <circle cx="727.5" cy="824.0" r="22" fill="var(--panel)" fill-opacity="0.86" stroke="var(--muted-text)" stroke-width="1.5" opacity="0.82"/>
  <text x="727.5" y="832.0" text-anchor="middle" font-size="22" font-weight="800" fill="var(--muted-text)" opacity="0.72">VS</text>
  <line x1="1152.0" y1="824.0" x2="1233.0" y2="824.0" stroke="var(--muted-text)" stroke-width="1.5" stroke-dasharray="8 9" opacity="0.42" stroke-linecap="round"/>
  <circle cx="1192.5" cy="824.0" r="22" fill="var(--panel)" fill-opacity="0.86" stroke="var(--muted-text)" stroke-width="1.5" opacity="0.82"/>
  <text x="1192.5" y="832.0" text-anchor="middle" font-size="22" font-weight="800" fill="var(--muted-text)" opacity="0.72">VS</text>
  <g transform="translate(495.0, 280.0)" filter="url(#svg78fe30e7-soft-shadow)">
    <rect id="ITEM_1_BG" x="-200.0" y="0" width="400.0" height="360" rx="26" fill="var(--panel)" fill-opacity="0.92" stroke="var(--accent-1)" stroke-width="2.5"/>
    <rect x="-200.0" y="0" width="400.0" height="360" rx="18" fill="url(#svg78fe30e7-universal-surface-sheen)" opacity="0.86"/>
    <rect x="-184.0" y="12" width="368.0" height="8" rx="4" fill="var(--accent-1)" fill-opacity="0.42"/>
    <circle id="ITEM_1_PAD" cx="0" cy="74" r="46" fill="var(--icon-pad-bg)" stroke="var(--accent-1)" opacity="1" fill-opacity="0.9" stroke-width="2" stroke-opacity="0.72" data-badge-layer="pad"/>
    <circle id="ITEM_1_PAD_INNER" cx="0" cy="74" r="35.88" fill="var(--accent-1)" fill-opacity="0.12" stroke="none" data-badge-layer="tint"/>
    <circle cx="0" cy="74" r="36" fill="none" stroke="var(--accent-1)" stroke-width="2.25" stroke-dasharray="4 4" opacity="0.8" display="none" data-suppressed-decoration="redundant-badge-ring"/>
    <g id="ITEM_1_ICON" transform="translate(-34, 40)" data-icon-size="68" stroke-linecap="round" stroke-linejoin="round" data-badge-treatment="clean">
      <g transform="translate(-4.920677966101698,-4.920677966101698) scale(3.243389830508475)" vector-effect="non-scaling-stroke" stroke-width="2.53" stroke-linecap="round" stroke-linejoin="round" stroke-opacity="1.0">
        <path d="m2 2 20 20" vector-effect="non-scaling-stroke" fill="none" stroke="#f1f5f9"/>
        <path d="M8.35 2.69A10 10 0 0 1 21.3 15.65" vector-effect="non-scaling-stroke" fill="none" stroke="#f1f5f9"/>
        <path d="M19.08 19.08A10 10 0 1 1 4.92 4.92" vector-effect="non-scaling-stroke" fill="none" stroke="#f1f5f9"/>
      </g>
    </g>
    <text id="ITEM_1_HEAD" x="0.0" y="138.0" text-anchor="middle" font-size="44" font-weight="800" fill="var(--accent-1)" data-bg-id="ITEM_1_BG" fill-opacity="1.0" style="font-size: 31px; font-family: 'Segoe UI Variable Display', 'Aptos Display', 'Inter', 'Segoe UI', Helvetica, Arial, sans-serif; font-weight: 700; font-kerning: normal; font-feature-settings: &quot;kern&quot; 1, &quot;liga&quot; 1; letter-spacing:-0.4px;" data-final-font-size="31">
      <tspan x="0.0" dy="42.52px">No Travel Log</tspan>
    </text>
    <rect id="ITEM_1_HEAD_FRAME" x="-165.0" y="138" width="330.0" height="68" fill="none"/>
    <text id="ITEM_1_BODY" x="0.0" y="206.0" text-anchor="middle" font-size="27" fill="var(--primary-text)" data-bg-id="ITEM_1_BG" style="font-size: 23px; font-family: 'Segoe UI Variable Text', 'Aptos', 'Inter', 'Segoe UI', Helvetica, Arial, sans-serif; font-weight: 400; font-kerning: normal; font-feature-settings: &quot;kern&quot; 1, &quot;liga&quot; 1;" data-final-font-size="23">
      <tspan x="0.0" dy="38.62px">Hills did not keep written records</tspan>
      <tspan x="0.0" dy="26.45px">of journey stops</tspan>
    </text>
    <rect id="ITEM_1_BODY_FRAME" x="-190.0" y="206" width="380" height="154" fill="none"/>
  </g>
  <g transform="translate(960.0, 280.0)" filter="url(#svg78fe30e7-soft-shadow)">
    <rect id="ITEM_2_BG" x="-200.0" y="0" width="400.0" height="360" rx="26" fill="var(--panel)" fill-opacity="0.92" stroke="var(--accent-2)" stroke-width="2.5"/>
    <rect x="-200.0" y="0" width="400.0" height="360" rx="18" fill="url(#svg78fe30e7-universal-surface-sheen)" opacity="0.86"/>
    <rect x="-184.0" y="12" width="368.0" height="8" rx="4" fill="var(--accent-2)" fill-opacity="0.42"/>
    <circle id="ITEM_2_PAD" cx="0" cy="74" r="46" fill="var(--icon-pad-bg)" stroke="var(--accent-2)" opacity="1" fill-opacity="0.9" stroke-width="2" stroke-opacity="0.72" data-badge-layer="pad"/>
    <circle id="ITEM_2_PAD_INNER" cx="0" cy="74" r="35.88" fill="var(--accent-2)" fill-opacity="0.12" stroke="none" data-badge-layer="tint"/>
    <circle cx="0" cy="74" r="36" fill="none" stroke="var(--accent-2)" stroke-width="2.25" stroke-dasharray="4 4" opacity="0.8" display="none" data-suppressed-decoration="redundant-badge-ring"/>
    <g id="ITEM_2_ICON" transform="translate(-34, 40)" data-icon-size="68" stroke-linecap="round" stroke-linejoin="round" data-badge-treatment="clean">
      <g transform="translate(-6.960353982300888,-8.547964601769914) scale(2.540176991150443)">
        <path d="M5 27.99C5 28.75 5.61 29.36 6.37 29.36C7.13 29.36 7.74 28.75 7.74 27.99V26.62H5V27.99ZM24.15 27.99C24.15 28.75 24.76 29.36 25.52 29.36C26.27 29.36 26.89 28.75 26.89 27.99V26.62H24.15V27.99Z" fill="#212121"/>
        <path d="M27 5C27 5.55228 26.5523 6 26 6C25.7251 6 25.4761 5.88908 25.2954 5.70956L7.9667 9.12058L7.77356 8.1394L25.0336 4.74189C25.1474 4.3147 25.537 4 26 4C26.5523 4 27 4.44772 27 5Z" fill="#9B9B9B"/>
        <path d="M6.84005 11.85C7.96671 11.85 8.88005 10.9367 8.88005 9.81002C8.88005 8.68336 7.96671 7.77002 6.84005 7.77002C5.71338 7.77002 4.80005 8.68336 4.80005 9.81002C4.80005 10.9367 5.71338 11.85 6.84005 11.85Z" fill="#D3D3D3"/>
        <path d="M27.38 9.81006H4.63C3.18 9.81006 2 10.9901 2 12.4401V24.6901C2 26.1401 3.18 27.3201 4.63 27.3201H27.38C28.83 27.3201 30.01 26.1401 30.01 24.6901V12.4301C30 10.9801 28.83 9.81006 27.38 9.81006Z" fill="#9B9B9B"/>
        <path d="M26.32 12.76H18.45C17.79 12.76 17.25 13.3 17.25 13.96V18.79C17.25 19.45 17.79 19.99 18.45 19.99H26.32C26.98 19.99 27.52 19.45 27.52 18.79V13.96C27.52 13.3 26.98 12.76 26.32 12.76Z" fill="#83CBFF"/>
        <path d="M19.88 15.83C19.44 15.83 19.09 16.19 19.09 16.62V19.98H20.68V16.62C20.67 16.19 20.32 15.83 19.88 15.83Z" fill="#F8312F"/>
        <path d="M14.83 14.12C15.2 14.12 15.51 13.82 15.51 13.44C15.51 13.07 15.21 12.76 14.83 12.76H5.18C4.81 12.76 4.5 13.06 4.5 13.44C4.5 13.81 4.8 14.12 5.18 14.12H14.83ZM15.51 15.96C15.51 16.34 15.2 16.64 14.83 16.64H5.18C4.8 16.64 4.5 16.33 4.5 15.96C4.5 15.58 4.81 15.28 5.18 15.28H14.83C15.21 15.27 15.51 15.58 15.51 15.96ZM14.83 19.15C15.2 19.15 15.51 18.85 15.51 18.47C15.51 18.1 15.21 17.79 14.83 17.79H5.18C4.81 17.79 4.5 18.09 4.5 18.47C4.5 18.84 4.8 19.15 5.18 19.15H14.83ZM15.51 20.9901C15.51 21.3701 15.2 21.6701 14.83 21.6701H5.18C4.8 21.6701 4.5 21.3601 4.5 20.9901C4.5 20.6101 4.81 20.3101 5.18 20.3101H14.83C15.21 20.3 15.51 20.6101 15.51 20.9901ZM15.51 23.5001C15.51 23.8801 15.2 24.1801 14.83 24.1801H5.18C4.8 24.1801 4.5 23.8701 4.5 23.5001C4.5 23.1201 4.81 22.8201 5.18 22.8201H14.83C15.21 22.8201 15.51 23.1301 15.51 23.5001Z" fill="#212121"/>
        <path d="M21.04 22.9199C21.04 23.6103 20.4804 24.1699 19.79 24.1699C19.0997 24.1699 18.54 23.6103 18.54 22.9199C18.54 22.2296 19.0997 21.6699 19.79 21.6699C20.4804 21.6699 21.04 22.2296 21.04 22.9199ZM26.6201 22.9199C26.6201 23.6103 26.0605 24.1699 25.3701 24.1699C24.6798 24.1699 24.1201 23.6103 24.1201 22.9199C24.1201 22.2296 24.6798 21.6699 25.3701 21.6699C26.0605 21.6699 26.6201 22.2296 26.6201 22.9199Z" fill="#F4F4F4"/>
      </g>
    </g>
    <text id="ITEM_2_HEAD" x="0.0" y="138.0" text-anchor="middle" font-size="44" font-weight="800" fill="var(--accent-2)" data-bg-id="ITEM_2_BG" fill-opacity="1.0" style="font-size: 31px; font-family: 'Segoe UI Variable Display', 'Aptos Display', 'Inter', 'Segoe UI', Helvetica, Arial, sans-serif; font-weight: 700; font-kerning: normal; font-feature-settings: &quot;kern&quot; 1, &quot;liga&quot; 1; letter-spacing:-0.4px;" data-final-font-size="31">
      <tspan x="0.0" dy="42.52px">No GPS Track</tspan>
    </text>
    <rect id="ITEM_2_HEAD_FRAME" x="-165.0" y="138" width="330.0" height="68" fill="none"/>
    <text id="ITEM_2_BODY" x="0.0" y="206.0" text-anchor="middle" font-size="27" fill="var(--primary-text)" data-bg-id="ITEM_2_BG" style="font-size: 23px; font-family: 'Segoe UI Variable Text', 'Aptos', 'Inter', 'Segoe UI', Helvetica, Arial, sans-serif; font-weight: 400; font-kerning: normal; font-feature-settings: &quot;kern&quot; 1, &quot;liga&quot; 1;" data-final-font-size="23">
      <tspan x="0.0" dy="38.62px">1961 technology lacked electronic</tspan>
      <tspan x="0.0" dy="26.45px">location tracking devices</tspan>
    </text>
    <rect id="ITEM_2_BODY_FRAME" x="-190.0" y="206" width="380" height="154" fill="none"/>
  </g>
  <g transform="translate(1425.0, 280.0)" filter="url(#svg78fe30e7-soft-shadow)">
    <rect id="ITEM_3_BG" x="-200.0" y="0" width="400.0" height="360" rx="26" fill="var(--panel)" fill-opacity="0.92" stroke="var(--accent-3)" stroke-width="2.5"/>
    <rect x="-200.0" y="0" width="400.0" height="360" rx="18" fill="url(#svg78fe30e7-universal-surface-sheen)" opacity="0.86"/>
    <rect x="-184.0" y="12" width="368.0" height="8" rx="4" fill="var(--accent-3)" fill-opacity="0.42"/>
    <circle id="ITEM_3_PAD" cx="0" cy="74" r="46" fill="var(--icon-pad-bg)" stroke="var(--accent-3)" opacity="1" fill-opacity="0.9" stroke-width="2" stroke-opacity="0.72" data-badge-layer="pad"/>
    <circle id="ITEM_3_PAD_INNER" cx="0" cy="74" r="35.88" fill="var(--accent-3)" fill-opacity="0.12" stroke="none" data-badge-layer="tint"/>
    <circle cx="0" cy="74" r="36" fill="none" stroke="var(--accent-3)" stroke-width="2.25" stroke-dasharray="4 4" opacity="0.8" display="none" data-suppressed-decoration="redundant-badge-ring"/>
    <g id="ITEM_3_ICON" transform="translate(-34, 40)" data-icon-size="68" stroke-linecap="round" stroke-linejoin="round" data-badge-treatment="clean">
      <g transform="translate(-8.287142857142863,-7.005714285714289) scale(2.562857142857143)">
        <path d="M25.05 3.105L24.03 2.165C23.79 1.945 23.42 1.945 23.18 2.165L22.16 3.105C22.02 3.235 21.79 3.235 21.65 3.105L20.63 2.165C20.39 1.945 20.02 1.945 19.78 2.165L18.76 3.105C18.62 3.235 18.39 3.235 18.25 3.105L17.23 2.165C16.99 1.945 16.62 1.945 16.38 2.165L15.35 3.105C15.21 3.235 14.98 3.235 14.84 3.105L13.82 2.165C13.58 1.945 13.21 1.945 12.97 2.165L11.95 3.105C11.81 3.235 11.58 3.235 11.44 3.105L10.42 2.155C10.26 2.005 10 2.125 10 2.345V3.775V29.995H24.61C25.93 29.995 27 28.925 27 27.605V3.765V2.345C27 2.125 26.74 2.015 26.58 2.165L25.55 3.115C25.41 3.235 25.19 3.235 25.05 3.105Z" fill="#D3D3D3"/>
        <path d="M12.25 8H24.75C24.89 8 25 7.89 25 7.75V6.25C25 6.11 24.89 6 24.75 6H12.25C12.11 6 12 6.11 12 6.25V7.75C12 7.89 12.11 8 12.25 8ZM12.5 10C12.2239 10 12 10.2239 12 10.5C12 10.7761 12.2239 11 12.5 11H20.5C20.7761 11 21 10.7761 21 10.5C21 10.2239 20.7761 10 20.5 10H12.5ZM12.5 13C12.2239 13 12 13.2239 12 13.5C12 13.7761 12.2239 14 12.5 14H20.5C20.7761 14 21 13.7761 21 13.5C21 13.2239 20.7761 13 20.5 13H12.5ZM12 16.5C12 16.2239 12.2239 16 12.5 16H20.5C20.7761 16 21 16.2239 21 16.5C21 16.7761 20.7761 17 20.5 17H12.5C12.2239 17 12 16.7761 12 16.5ZM12.5 19C12.2239 19 12 19.2239 12 19.5C12 19.7761 12.2239 20 12.5 20H20.5C20.7761 20 21 19.7761 21 19.5C21 19.2239 20.7761 19 20.5 19H12.5ZM12 22.5C12 22.2239 12.2239 22 12.5 22H20.5C20.7761 22 21 22.2239 21 22.5C21 22.7761 20.7761 23 20.5 23H12.5C12.2239 23 12 22.7761 12 22.5ZM22.5 10C22.2239 10 22 10.2239 22 10.5C22 10.7761 22.2239 11 22.5 11H24.5C24.7761 11 25 10.7761 25 10.5C25 10.2239 24.7761 10 24.5 10H22.5ZM22 13.5C22 13.2239 22.2239 13 22.5 13H24.5C24.7761 13 25 13.2239 25 13.5C25 13.7761 24.7761 14 24.5 14H22.5C22.2239 14 22 13.7761 22 13.5ZM22.5 16C22.2239 16 22 16.2239 22 16.5C22 16.7761 22.2239 17 22.5 17H24.5C24.7761 17 25 16.7761 25 16.5C25 16.2239 24.7761 16 24.5 16H22.5ZM22 19.5C22 19.2239 22.2239 19 22.5 19H24.5C24.7761 19 25 19.2239 25 19.5C25 19.7761 24.7761 20 24.5 20H22.5C22.2239 20 22 19.7761 22 19.5ZM22.5 22C22.2239 22 22 22.2239 22 22.5C22 22.7761 22.2239 23 22.5 23H24.5C24.7761 23 25 22.7761 25 22.5C25 22.2239 24.7761 22 24.5 22H22.5ZM22 27.495V25.935C22 25.415 21.58 24.995 21.06 24.995H6.94C6.42 24.995 6 25.415 6 25.935V27.495C6 28.875 7.12 29.995 8.5 29.995H24.5C23.12 29.995 22 28.875 22 27.495Z" fill="#9B9B9B"/>
      </g>
    </g>
    <text id="ITEM_3_HEAD" x="0.0" y="138.0" text-anchor="middle" font-size="44" font-weight="800" fill="var(--accent-3)" data-bg-id="ITEM_3_BG" fill-opacity="1.0" style="font-size: 31px; font-family: 'Segoe UI Variable Display', 'Aptos Display', 'Inter', 'Segoe UI', Helvetica, Arial, sans-serif; font-weight: 700; font-kerning: normal; font-feature-settings: &quot;kern&quot; 1, &quot;liga&quot; 1; letter-spacing:-0.4px;" data-final-font-size="31">
      <tspan x="0.0" dy="42.52px">No Toll Proof</tspan>
    </text>
    <rect id="ITEM_3_HEAD_FRAME" x="-165.0" y="138" width="330.0" height="68" fill="none"/>
    <text id="ITEM_3_BODY" x="0.0" y="206.0" text-anchor="middle" font-size="27" fill="var(--primary-text)" data-bg-id="ITEM_3_BG" style="font-size: 23px; font-family: 'Segoe UI Variable Text', 'Aptos', 'Inter', 'Segoe UI', Helvetica, Arial, sans-serif; font-weight: 400; font-kerning: normal; font-feature-settings: &quot;kern&quot; 1, &quot;liga&quot; 1;" data-final-font-size="23">
      <tspan x="0.0" dy="38.62px">Receipts for toll roads or fuel</tspan>
      <tspan x="0.0" dy="26.45px">purchases were missing</tspan>
    </text>
    <rect id="ITEM_3_BODY_FRAME" x="-190.0" y="206" width="380" height="154" fill="none"/>
  </g>
  <g transform="translate(495.0, 670.0)" filter="url(#svg78fe30e7-soft-shadow)">
    <rect id="ITEM_4_BG" x="-200.0" y="0" width="400.0" height="360" rx="26" fill="var(--panel)" fill-opacity="0.92" stroke="var(--accent-4)" stroke-width="2.5"/>
    <rect x="-200.0" y="0" width="400.0" height="360" rx="18" fill="url(#svg78fe30e7-universal-surface-sheen)" opacity="0.86"/>
    <rect x="-184.0" y="12" width="368.0" height="8" rx="4" fill="var(--accent-4)" fill-opacity="0.42"/>
    <circle id="ITEM_4_PAD" cx="0" cy="74" r="46" fill="var(--icon-pad-bg)" stroke="var(--accent-1)" opacity="1" fill-opacity="0.9" stroke-width="2" stroke-opacity="0.72" data-badge-layer="pad"/>
    <circle id="ITEM_4_PAD_INNER" cx="0" cy="74" r="35.88" fill="var(--accent-1)" fill-opacity="0.12" stroke="none" data-badge-layer="tint"/>
    <circle cx="0" cy="74" r="36" fill="none" stroke="var(--accent-4)" stroke-width="2.25" stroke-dasharray="4 4" opacity="0.8" display="none" data-suppressed-decoration="redundant-badge-ring"/>
    <g id="ITEM_4_ICON" transform="translate(-34, 40)" data-icon-size="68" stroke-linecap="round" stroke-linejoin="round" data-badge-treatment="clean">
      <g transform="translate(-4.920677966101698,-4.920677966101698) scale(3.243389830508475)" vector-effect="non-scaling-stroke" stroke-width="2.53" stroke-linecap="round" stroke-linejoin="round" stroke-opacity="1.0">
        <path d="m2 2 20 20" vector-effect="non-scaling-stroke" fill="none" stroke="#f1f5f9"/>
        <path d="M8.35 2.69A10 10 0 0 1 21.3 15.65" vector-effect="non-scaling-stroke" fill="none" stroke="#f1f5f9"/>
        <path d="M19.08 19.08A10 10 0 1 1 4.92 4.92" vector-effect="non-scaling-stroke" fill="none" stroke="#f1f5f9"/>
      </g>
    </g>
    <text id="ITEM_4_HEAD" x="0.0" y="138.0" text-anchor="middle" font-size="44" font-weight="800" fill="var(--accent-1)" data-bg-id="ITEM_4_BG" fill-opacity="1.0" style="font-size: 31px; font-family: 'Segoe UI Variable Display', 'Aptos Display', 'Inter', 'Segoe UI', Helvetica, Arial, sans-serif; font-weight: 700; font-kerning: normal; font-feature-settings: &quot;kern&quot; 1, &quot;liga&quot; 1; letter-spacing:-0.4px;" data-final-font-size="31">
      <tspan x="0.0" dy="42.52px">No Witness Sightings</tspan>
    </text>
    <rect id="ITEM_4_HEAD_FRAME" x="-165.0" y="138" width="330.0" height="68" fill="none"/>
    <text id="ITEM_4_BODY" x="0.0" y="206.0" text-anchor="middle" font-size="27" fill="var(--primary-text)" data-bg-id="ITEM_4_BG" style="font-size: 23px; font-family: 'Segoe UI Variable Text', 'Aptos', 'Inter', 'Segoe UI', Helvetica, Arial, sans-serif; font-weight: 400; font-kerning: normal; font-feature-settings: &quot;kern&quot; 1, &quot;liga&quot; 1;" data-final-font-size="23">
      <tspan x="0.0" dy="38.62px">Independent observers did not</tspan>
      <tspan x="0.0" dy="26.45px">confirm stopped duration</tspan>
    </text>
    <rect id="ITEM_4_BODY_FRAME" x="-190.0" y="206" width="380" height="154" fill="none"/>
  </g>
  <g transform="translate(960.0, 670.0)" filter="url(#svg78fe30e7-soft-shadow)">
    <rect id="ITEM_5_BG" x="-200.0" y="0" width="400.0" height="360" rx="26" fill="var(--panel)" fill-opacity="0.92" stroke="var(--accent-5)" stroke-width="2.5"/>
    <rect x="-200.0" y="0" width="400.0" height="360" rx="18" fill="url(#svg78fe30e7-universal-surface-sheen)" opacity="0.86"/>
    <rect x="-184.0" y="12" width="368.0" height="8" rx="4" fill="var(--accent-5)" fill-opacity="0.42"/>
    <circle id="ITEM_5_PAD" cx="0" cy="74" r="46" fill="var(--icon-pad-bg)" stroke="var(--accent-2)" opacity="1" fill-opacity="0.9" stroke-width="2" stroke-opacity="0.72" data-badge-layer="pad"/>
    <circle id="ITEM_5_PAD_INNER" cx="0" cy="74" r="35.88" fill="var(--accent-2)" fill-opacity="0.12" stroke="none" data-badge-layer="tint"/>
    <circle cx="0" cy="74" r="36" fill="none" stroke="var(--accent-5)" stroke-width="2.25" stroke-dasharray="4 4" opacity="0.8" display="none" data-suppressed-decoration="redundant-badge-ring"/>
    <g id="ITEM_5_ICON" transform="translate(-34, 40)" data-icon-size="68" stroke-linecap="round" stroke-linejoin="round" data-badge-treatment="clean">
      <g transform="translate(-4.920677966101698,-4.920677966101698) scale(3.243389830508475)" vector-effect="non-scaling-stroke" stroke-width="2.53" stroke-linecap="round" stroke-linejoin="round" stroke-opacity="1.0">
        <path d="m2 2 20 20" vector-effect="non-scaling-stroke" fill="none" stroke="#f1f5f9"/>
        <path d="M8.35 2.69A10 10 0 0 1 21.3 15.65" vector-effect="non-scaling-stroke" fill="none" stroke="#f1f5f9"/>
        <path d="M19.08 19.08A10 10 0 1 1 4.92 4.92" vector-effect="non-scaling-stroke" fill="none" stroke="#f1f5f9"/>
      </g>
    </g>
    <text id="ITEM_5_HEAD" x="0.0" y="138.0" text-anchor="middle" font-size="44" font-weight="800" fill="var(--accent-2)" data-bg-id="ITEM_5_BG" fill-opacity="1.0" style="font-size: 31px; font-family: 'Segoe UI Variable Display', 'Aptos Display', 'Inter', 'Segoe UI', Helvetica, Arial, sans-serif; font-weight: 700; font-kerning: normal; font-feature-settings: &quot;kern&quot; 1, &quot;liga&quot; 1; letter-spacing:-0.4px;" data-final-font-size="31">
      <tspan x="0.0" dy="42.52px">No Official Record</tspan>
    </text>
    <rect id="ITEM_5_HEAD_FRAME" x="-165.0" y="138" width="330.0" height="68" fill="none"/>
    <text id="ITEM_5_BODY" x="0.0" y="206.0" text-anchor="middle" font-size="27" fill="var(--primary-text)" data-bg-id="ITEM_5_BG" style="font-size: 23px; font-family: 'Segoe UI Variable Text', 'Aptos', 'Inter', 'Segoe UI', Helvetica, Arial, sans-serif; font-weight: 400; font-kerning: normal; font-feature-settings: &quot;kern&quot; 1, &quot;liga&quot; 1;" data-final-font-size="23">
      <tspan x="0.0" dy="38.62px">Project Blue Book documented</tspan>
      <tspan x="0.0" dy="26.45px">sighting but not time loss</tspan>
    </text>
    <rect id="ITEM_5_BODY_FRAME" x="-190.0" y="206" width="380" height="154" fill="none"/>
  </g>
  <g transform="translate(1425.0, 670.0)" filter="url(#svg78fe30e7-soft-shadow)">
    <rect id="ITEM_6_BG" x="-200.0" y="0" width="400.0" height="360" rx="26" fill="var(--panel)" fill-opacity="0.92" stroke="var(--accent-6)" stroke-width="2.5"/>
    <rect x="-200.0" y="0" width="400.0" height="360" rx="18" fill="url(#svg78fe30e7-universal-surface-sheen)" opacity="0.86"/>
    <rect x="-184.0" y="12" width="368.0" height="8" rx="4" fill="var(--accent-6)" fill-opacity="0.42"/>
    <circle id="ITEM_6_PAD" cx="0" cy="74" r="46" fill="var(--icon-pad-bg)" stroke="var(--accent-6)" opacity="1" fill-opacity="0.9" stroke-width="2" stroke-opacity="0.72" data-badge-layer="pad"/>
    <circle id="ITEM_6_PAD_INNER" cx="0" cy="74" r="35.88" fill="var(--accent-6)" fill-opacity="0.12" stroke="none" data-badge-layer="tint"/>
    <circle cx="0" cy="74" r="36" fill="none" stroke="var(--accent-6)" stroke-width="2.25" stroke-dasharray="4 4" opacity="0.8" display="none" data-suppressed-decoration="redundant-badge-ring"/>
    <g id="ITEM_6_ICON" transform="translate(-34, 40)" data-icon-size="68" stroke-linecap="round" stroke-linejoin="round" data-badge-treatment="clean">
      <g transform="translate(-8.524444444444448,-8.524444444444448) scale(3.543703703703704)" vector-effect="non-scaling-stroke" stroke-width="2.53" stroke-linecap="round" stroke-linejoin="round" stroke-opacity="1.0">
        <path d="m13.5 8.5-5 5" vector-effect="non-scaling-stroke" fill="none" stroke="#f1f5f9"/>
        <path d="m8.5 8.5 5 5" vector-effect="non-scaling-stroke" fill="none" stroke="#f1f5f9"/>
        <circle cx="11" cy="11" r="8" vector-effect="non-scaling-stroke" fill="none" stroke="#f1f5f9"/>
        <path d="m21 21-4.3-4.3" vector-effect="non-scaling-stroke" fill="none" stroke="#f1f5f9"/>
      </g>
    </g>
    <text id="ITEM_6_HEAD" x="0.0" y="138.0" text-anchor="middle" font-size="44" font-weight="800" fill="var(--accent-6)" data-bg-id="ITEM_6_BG" fill-opacity="1.0" style="font-size: 31px; font-family: 'Segoe UI Variable Display', 'Aptos Display', 'Inter', 'Segoe UI', Helvetica, Arial, sans-serif; font-weight: 700; font-kerning: normal; font-feature-settings: &quot;kern&quot; 1, &quot;liga&quot; 1; letter-spacing:-0.4px;" data-final-font-size="31">
      <tspan x="0.0" dy="42.52px">No Physical Proof</tspan>
    </text>
    <rect id="ITEM_6_HEAD_FRAME" x="-165.0" y="138" width="330.0" height="68" fill="none"/>
    <text id="ITEM_6_BODY" x="0.0" y="206.0" text-anchor="middle" font-size="27" fill="var(--primary-text)" data-bg-id="ITEM_6_BG" style="font-size: 23px; font-family: 'Segoe UI Variable Text', 'Aptos', 'Inter', 'Segoe UI', Helvetica, Arial, sans-serif; font-weight: 400; font-kerning: normal; font-feature-settings: &quot;kern&quot; 1, &quot;liga&quot; 1;" data-final-font-size="23">
      <tspan x="0.0" dy="38.62px">Damaged shoes and watches failed</tspan>
      <tspan x="0.0" dy="26.45px">to prove elapsed time</tspan>
    </text>
    <rect id="ITEM_6_BODY_FRAME" x="-190.0" y="206" width="380" height="154" fill="none"/>
  </g>
  <text id="SOURCE_NOTE" x="134.0" y="1058.0" fill="var(--muted-text)" opacity="0.88" style="font-family: var(--font-family); font-size: 20px;">Source: Introduction</text>
</svg>
