<?xml version='1.0' encoding='utf-8'?>
<svg xmlns="http://www.w3.org/2000/svg" width="1920" height="1080" viewBox="0 0 1920 1080" data-theme="dark" data-semantic-intent="taxonomy_list" data-relation-type="taxonomy" data-site-visual-identity="signal-cobalt">
  <style>
        @font-face {
            font-family: 'Inter';
            src: url('assets/fonts/Inter-Regular.ttf') format('truetype');
            font-weight: 400;
            font-style: normal;
            font-display: swap;
        }
        @font-face {
            font-family: 'Inter';
            src: url('assets/fonts/Inter-Bold.ttf') format('truetype');
            font-weight: 600;
            font-style: normal;
            font-display: swap;
        }
        @font-face {
            font-family: 'Inter';
            src: url('assets/fonts/Inter-Bold.ttf') format('truetype');
            font-weight: 800;
            font-style: normal;
            font-display: swap;
        }
        
:root {
    --background: #0f172a;
    --panel: #1e293b;
    --primary-text: #f1f5f9;
    --muted-text: #94a3b8;
    --inverse-text: #0f172a;
    --border: #334155;
    --shadow-color: #000000;
    --icon-pad-bg: #1e293b;
    --art-glow: #7dd3fc;
    --art-glow-opacity: 0.18;
    --art-sheen: #ffffff;
    --art-sheen-opacity: 0.18;
    --art-shadow: #000000;
    --art-shadow-opacity: 0.28;
    --art-muted-line: #64748b;
    --art-panel-tint: #1e293b;
    --semantic-risk: #f87171;
    --semantic-warning: #fb923c;
    --semantic-uncertain: #fbbf24;
    --semantic-evidence: #60a5fa;
    --semantic-claim: #c084fc;
    --semantic-positive: #4ade80;
    --semantic-outcome: #22d3ee;
    --font-family: 'Inter', 'Segoe UI', 'Kalam', Roboto, Helvetica, Arial, sans-serif;
    --radius-xl: 16px;
    --font-family-headline: 'Segoe UI Variable Display', 'Aptos Display', 'Inter', 'Segoe UI', Helvetica, Arial, sans-serif;
    --font-family-body: 'Segoe UI Variable Text', 'Aptos', 'Inter', 'Segoe UI', Helvetica, Arial, sans-serif;
    --font-heading: var(--font-family-headline);
    --font-body: var(--font-family-body);
    --font-size-h1: 64px;
    --font-size-h2: 42px;
    --font-size-h3: 29px;
    --font-size-body: 21px;
    --font-size-caption: 17px;
    --secondary-text: var(--muted-text);
    --panel-border: var(--border);
    --font-weight-normal: 400;
    --font-weight-medium: 500;
    --font-weight-semibold: 600;
    --font-weight-bold: 700;
    --spacing-gutter-pct: 0.07;
    --spacing-top-pct: 0.15;
    --spacing-bottom-pct: 0.07;
    --spacing-title-y-pct: 0.055;
    --accent-1: #93c5fd;
    --accent-2: #60a5fa;
    --accent-3: #818cf8;
    --accent-4: #a78bfa;
    --accent-5: #38bdf8;
    --accent-6: #fb923c;
}
:root[data-theme="dark"] {
    --background: #0f172a;
    --panel: #1e293b;
    --primary-text: #f1f5f9;
    --muted-text: #94a3b8;
    --inverse-text: #0f172a;
    --border: #334155;
    --shadow-color: #000000;
    --icon-pad-bg: #1e293b;
    --art-glow: #7dd3fc;
    --art-glow-opacity: 0.18;
    --art-sheen: #ffffff;
    --art-sheen-opacity: 0.18;
    --art-shadow: #000000;
    --art-shadow-opacity: 0.28;
    --art-muted-line: #64748b;
    --art-panel-tint: #1e293b;
    --semantic-risk: #f87171;
    --semantic-warning: #fb923c;
    --semantic-uncertain: #fbbf24;
    --semantic-evidence: #60a5fa;
    --semantic-claim: #c084fc;
    --semantic-positive: #4ade80;
    --semantic-outcome: #22d3ee;
    --accent-1: #93c5fd;
    --accent-2: #60a5fa;
    --accent-3: #818cf8;
    --accent-4: #a78bfa;
    --accent-5: #38bdf8;
    --accent-6: #fb923c;
}
:root[data-theme="light"] {
    --background: #f8fafc;
    --panel: #ffffff;
    --primary-text: #0f172a;
    --muted-text: #64748b;
    --inverse-text: #ffffff;
    --border: #e2e8f0;
    --shadow-color: #000000;
    --icon-pad-bg: #1e293b;
    --art-glow: #0891b2;
    --art-glow-opacity: 0.10;
    --art-sheen: #ffffff;
    --art-sheen-opacity: 0.34;
    --art-shadow: #0f172a;
    --art-shadow-opacity: 0.14;
    --art-muted-line: #94a3b8;
    --art-panel-tint: #f1f5f9;
    --semantic-risk: #b91c1c;
    --semantic-warning: #c2410c;
    --semantic-uncertain: #a16207;
    --semantic-evidence: #1d4ed8;
    --semantic-claim: #6d28d9;
    --semantic-positive: #15803d;
    --semantic-outcome: #0e7490;
    --accent-1: #1d4ed8;
    --accent-2: #2563eb;
    --accent-3: #4f46e5;
    --accent-4: #6d28d9;
    --accent-5: #0369a1;
    --accent-6: #c2410c;
}</style>
  <rect x="0" y="0" width="1.92E+3" height="1.08E+3" fill="#252a34" stroke="none" id="programmatic_background"/>
  <line id="HEADER_DECOR" x1="960.0" x2="1080.0" y1="135.0" y2="135.0" stroke="var(--accent-1)" stroke-width="6" stroke-linecap="round"/>
  <defs>
    <pattern id="svge3fceede-napkin-hatch" patternUnits="userSpaceOnUse" width="12" height="12">
      <path d="M -3 12 L 12 -3 M 0 15 L 15 0" fill="none" stroke="var(--primary-text)" stroke-width="1" stroke-opacity="0.05"/>
    </pattern>
    <filter id="svge3fceede-shadow" x="-30%" y="-30%" width="160%" height="160%">
      <feDropShadow dx="0" dy="2" stdDeviation="3" flood-color="#000000" flood-opacity="0.08"/>
      <feDropShadow dx="0" dy="6" stdDeviation="10" flood-color="#000000" flood-opacity="0.12"/>
    </filter>
    <radialGradient id="svge3fceede-universal-edge-vignette" cx="50%" cy="50%" r="72%">
      <stop offset="0%" stop-color="var(--background)" stop-opacity="0"/>
      <stop offset="72%" stop-color="var(--background)" stop-opacity="0.12"/>
      <stop offset="100%" stop-color="var(--primary-text)" stop-opacity="0.08"/>
    </radialGradient>
    <linearGradient id="svge3fceede-universal-surface-sheen" x1="0%" y1="0%" x2="100%" y2="100%">
      <stop offset="0%" stop-color="var(--art-sheen)" stop-opacity="var(--art-sheen-opacity)"/>
      <stop offset="46%" stop-color="var(--art-sheen)" stop-opacity="0.035"/>
      <stop offset="100%" stop-color="var(--art-panel-tint)" stop-opacity="0.14"/>
    </linearGradient>
    <radialGradient id="svge3fceede-universal-icon-aura" cx="50%" cy="42%" r="64%">
      <stop offset="0%" stop-color="var(--art-glow)" stop-opacity="var(--art-glow-opacity)"/>
      <stop offset="100%" stop-color="var(--background)" stop-opacity="0"/>
    </radialGradient>
    <linearGradient id="svge3fceede-fact-card-sheen" x1="0%" y1="0%" x2="100%" y2="100%">
      <stop offset="0%" stop-color="var(--inverse-text)" stop-opacity="0.18"/>
      <stop offset="54%" stop-color="var(--inverse-text)" stop-opacity="0.04"/>
      <stop offset="100%" stop-color="var(--background)" stop-opacity="0.14"/>
    </linearGradient>
    <radialGradient id="svge3fceede-fact-icon-glow" cx="50%" cy="42%" r="62%">
      <stop offset="0%" stop-color="var(--inverse-text)" stop-opacity="0.22"/>
      <stop offset="100%" stop-color="var(--background)" stop-opacity="0"/>
    </radialGradient>
    <filter id="svge3fceede-text-glow" x="-20%" y="-20%" width="140%" height="140%">
      <feDropShadow dx="0" dy="0" stdDeviation="2" flood-color="#000000" flood-opacity="0.4"/>
    </filter>
    <marker id="svge3fceede-arrowhead" markerWidth="10" markerHeight="7" refX="9" refY="3.5" orient="auto" markerUnits="strokeWidth">
      <polygon points="0 0, 10 3.5, 0 7" fill="var(--muted-text)" opacity="0.6"/>
    </marker>
  </defs>
  <rect width="100%" height="100%" fill="var(--background)" id="CANVAS_BG"/>
  <rect width="100%" height="100%" fill="url(#svge3fceede-napkin-hatch)"/>
  <rect id="UNIVERSAL_EDGE_VIGNETTE" width="100%" height="100%" fill="url(#svge3fceede-universal-edge-vignette)" opacity="0.62"/>
  <line x1="960" y1="178" x2="960" y2="986" stroke="var(--muted-text)" stroke-width="5" stroke-opacity="0.10" stroke-linecap="round"/>
  <path d="M 360 178 C 620 152 1300 152 1560 178" fill="none" stroke="var(--primary-text)" stroke-width="2" stroke-opacity="0.12" stroke-linecap="round"/>
  <text id="TITLE" x="960.0" y="59" font-size="72" font-weight="800" fill="#f1f5f9" style="font-size: 69px; font-family: 'Segoe UI Variable Display', 'Aptos Display', 'Inter', 'Segoe UI', Helvetica, Arial, sans-serif; font-weight: 800; font-kerning: normal; font-feature-settings: &quot;kern&quot; 1, &quot;liga&quot; 1; letter-spacing:-1.2px;" text-anchor="middle" data-final-font-size="69">
    <tspan x="960.0" dy="70.47px">Misidentification Categories in Ohio Skies</tspan>
  </text>
  <rect id="TITLE_FRAME" x="134" y="59" width="1652" height="103" fill="none"/>
  <g transform="translate(960.0, 255.0)">
    <rect id="ITEM_1_BG" x="-600" y="-40" width="1200" height="126" rx="24" fill="var(--accent-1)" stroke="var(--accent-1)" filter="url(#svge3fceede-shadow)" stroke-width="3" fill-opacity="0.4"/>
    <g transform="translate(-480.0, 0.0)">
      <circle r="45" fill="var(--background)" opacity="0.3"/>
      <circle id="ITEM_1_PAD" cx="0" cy="0" r="38" fill="var(--icon-pad-bg)" stroke="var(--accent-1)" opacity="1" fill-opacity="0.9" stroke-width="2" stroke-opacity="0.72" data-badge-layer="pad"/>
      <circle id="ITEM_1_PAD_INNER" cx="0" cy="0" r="29.64" fill="var(--accent-1)" fill-opacity="0.12" stroke="none" data-badge-layer="tint"/>
      <circle cx="0" cy="0" r="30" fill="none" stroke="var(--accent-1)" stroke-width="3" stroke-dasharray="6 4" display="none" data-suppressed-decoration="redundant-badge-ring"/>
      <g id="ITEM_1_ICON" transform="translate(-31, -31)" data-icon-size="62" stroke-linecap="round" stroke-linejoin="round" data-badge-treatment="clean">
        <g transform="translate(-2.6271186440677976,-2.6271186440677967) scale(2.8022598870056497)" vector-effect="non-scaling-stroke" stroke-width="2.46" stroke-linecap="round" stroke-linejoin="round" stroke-opacity="1.0">
          <path d="m20.9 18.55-8-15.98a1 1 0 0 0-1.8 0l-8 15.98" vector-effect="non-scaling-stroke" fill="none" stroke="#f1f5f9"/>
          <ellipse cx="12" cy="19" rx="9" ry="3" vector-effect="non-scaling-stroke" fill="none" stroke="#f1f5f9"/>
        </g>
      </g>
    </g>
    <g transform="translate(-330, -30)">
      <text id="ITEM_1_HEAD" text-anchor="start" font-weight="bold" font-size="27" fill="var(--primary-text)" x="0.0" y="-10.0" data-bg-id="ITEM_1_BG" fill-opacity="1.0" stroke="none" style="font-size: 31px; font-family: 'Segoe UI Variable Display', 'Aptos Display', 'Inter', 'Segoe UI', Helvetica, Arial, sans-serif; font-weight: 700; font-kerning: normal; font-feature-settings: &quot;kern&quot; 1, &quot;liga&quot; 1; letter-spacing:-0.4px;" data-final-font-size="31">
        <tspan x="0.0" dy="27.52px">Military Transports</tspan>
      </text>
      <rect id="ITEM_1_HEAD_FRAME" x="0" y="-10" width="846" height="38" fill="none"/>
      <text id="ITEM_1_BODY" text-anchor="start" font-size="19" fill="var(--primary-text)" x="0.0" y="20.0" data-bg-id="ITEM_1_BG" style="font-size: 23px; font-family: 'Segoe UI Variable Text', 'Aptos', 'Inter', 'Segoe UI', Helvetica, Arial, sans-serif; font-weight: 400; font-kerning: normal; font-feature-settings: &quot;kern&quot; 1, &quot;liga&quot; 1;" data-final-font-size="23">
        <tspan x="0.0" dy="27.91px">Large C-141s appear unfamiliar with bright landing lights</tspan>
      </text>
      <rect id="ITEM_1_BODY_FRAME" x="0" y="20" width="846" height="74" fill="none"/>
    </g>
  </g>
  <g transform="translate(960.0, 390.0)">
    <rect id="ITEM_2_BG" x="-600" y="-40" width="1200" height="126" rx="24" fill="var(--accent-2)" stroke="var(--accent-2)" filter="url(#svge3fceede-shadow)" stroke-width="3" fill-opacity="0.4"/>
    <g transform="translate(-480.0, 0.0)">
      <circle r="45" fill="var(--background)" opacity="0.3"/>
      <circle id="ITEM_2_PAD" cx="0" cy="0" r="38" fill="var(--icon-pad-bg)" stroke="var(--accent-2)" opacity="1" fill-opacity="0.9" stroke-width="2" stroke-opacity="0.72" data-badge-layer="pad"/>
      <circle id="ITEM_2_PAD_INNER" cx="0" cy="0" r="29.64" fill="var(--accent-2)" fill-opacity="0.12" stroke="none" data-badge-layer="tint"/>
      <circle cx="0" cy="0" r="30" fill="none" stroke="var(--accent-1)" stroke-width="3" stroke-dasharray="6 4" display="none" data-suppressed-decoration="redundant-badge-ring"/>
      <g id="ITEM_2_ICON" transform="translate(-31, -31)" data-icon-size="62" stroke-linecap="round" stroke-linejoin="round" data-badge-treatment="clean">
        <g transform="translate(-2.583333333333337,1.0333333333333319) scale(0.12916666666666668)" vector-effect="non-scaling-stroke" fill="#f1f5f9" fill-opacity="1.0" stroke="none">
          <path fill="#f1f5f9" d="M290.75 14.625c-14.073 0-47.344 43.993-47.344 79.97c0 26.674 11.15 44.41 38.375 46.81c3.648-21.18 3.137-42.01-3-62.874l17.908-5.28c6.65 22.616 7.458 45.273 4.093 67.625c27.623-3.88 37.283-20.537 37.283-46.28c0-35.977-33.655-79.97-47.313-79.97zm-45.188 140.063v11.843l-.187-3.905c.774 26.386-17.415 28.686-17.125 48.156c.227 15.365 12.172 20.084 17.313 12.69v145.75h97.156v-83.5c6.51 7.5 19.83 1.552 20.092-16.22c.31-20.772-16.87-25.295-20.093-48.22v-66.593c-32.392 10.276-65.8 9.795-97.158 0zM113.625 285.344c-19.435.005-37.23 10.322-48.094 26.125c-14.485 21.068-17.477 52.02-.81 81.405c7.814 13.78 4.407 25.93-2.126 32.28c-6.533 6.352-15.494 8.594-27.563-2.53l-12.655 13.72c17.56 16.183 40.3 14.805 53.25 2.217s16.81-34.69 5.344-54.906c-13.474-23.753-10.43-46.47-.032-61.594s27.313-22.524 45.968-15.593c23.738 8.82 34.46 29.795 32.813 48.124c-1.355 15.062-9.978 28.618-30.095 33.437h-25.688c3.313 6.736 7.145 13.262 11.407 19.533l.03 1c.213-.006.415-.025.626-.032c10.88 15.772 24.687 29.972 41.063 42.158H443c23.286-17.327 41.907-38.453 53.75-62.657H164.28c8.205-9.01 13.02-20.162 14.064-31.78c2.414-26.863-13.754-55.694-44.938-67.28c-6.646-2.47-13.303-3.628-19.78-3.626z" vector-effect="non-scaling-stroke" stroke="none"/>
        </g>
      </g>
    </g>
    <g transform="translate(-330, -30)">
      <text id="ITEM_2_HEAD" text-anchor="start" font-weight="bold" font-size="27" fill="var(--primary-text)" x="0.0" y="-10.0" data-bg-id="ITEM_2_BG" fill-opacity="1.0" stroke="none" style="font-size: 31px; font-family: 'Segoe UI Variable Display', 'Aptos Display', 'Inter', 'Segoe UI', Helvetica, Arial, sans-serif; font-weight: 700; font-kerning: normal; font-feature-settings: &quot;kern&quot; 1, &quot;liga&quot; 1; letter-spacing:-0.4px;" data-final-font-size="31">
        <tspan x="0.0" dy="27.52px">Improvised Balloons</tspan>
      </text>
      <rect id="ITEM_2_HEAD_FRAME" x="0" y="-10" width="846" height="38" fill="none"/>
      <text id="ITEM_2_BODY" text-anchor="start" font-size="19" fill="var(--primary-text)" x="0.0" y="20.0" data-bg-id="ITEM_2_BG" style="font-size: 23px; font-family: 'Segoe UI Variable Text', 'Aptos', 'Inter', 'Segoe UI', Helvetica, Arial, sans-serif; font-weight: 400; font-kerning: normal; font-feature-settings: &quot;kern&quot; 1, &quot;liga&quot; 1;" data-final-font-size="23">
        <tspan x="0.0" dy="27.91px">Hot-air frames drift silently and vanish when flames die</tspan>
      </text>
      <rect id="ITEM_2_BODY_FRAME" x="0" y="20" width="846" height="74" fill="none"/>
    </g>
  </g>
  <g transform="translate(960.0, 525.0)">
    <rect id="ITEM_3_BG" x="-600" y="-40" width="1200" height="126" rx="24" fill="var(--accent-3)" stroke="var(--accent-3)" filter="url(#svge3fceede-shadow)" stroke-width="3" fill-opacity="0.4"/>
    <g transform="translate(-480.0, 0.0)">
      <circle r="45" fill="var(--background)" opacity="0.3"/>
      <circle id="ITEM_3_PAD" cx="0" cy="0" r="38" fill="var(--icon-pad-bg)" stroke="var(--accent-3)" opacity="1" fill-opacity="0.9" stroke-width="2" stroke-opacity="0.72" data-badge-layer="pad"/>
      <circle id="ITEM_3_PAD_INNER" cx="0" cy="0" r="29.64" fill="var(--accent-3)" fill-opacity="0.12" stroke="none" data-badge-layer="tint"/>
      <circle cx="0" cy="0" r="30" fill="none" stroke="var(--accent-2)" stroke-width="3" stroke-dasharray="6 4" display="none" data-suppressed-decoration="redundant-badge-ring"/>
      <g id="ITEM_3_ICON" transform="translate(-31, -31)" data-icon-size="62" stroke-linecap="round" stroke-linejoin="round" data-badge-treatment="clean">
        <g transform="translate(-4.468468468468465,-7.261261261261259) scale(0.13963963963963963)" vector-effect="non-scaling-stroke" fill="#f1f5f9" fill-opacity="1.0" stroke="none">
          <path fill="#f1f5f9" d="M281.293 94.283a9 9 0 0 1-.23.203c-.027.023-.048.046-.073.07c.113-.103.143-.126.303-.273m.754.62c-.922-.026-1.59.26-1.79.333c-18.276 16.014-26.02 33.42-43.35 51.993c-17.25 18.485-43.688 36.204-96.677 51.225l-31.087 42.13a9 9 0 0 1-7.163 3.657l-50.75.45l-14.69-8.344l-2.622 119.744l14.603-8.426h57.28a9 9 0 0 1 6.934 3.264c13.526 16.35 20.025 32.04 37.946 39.838l200.556 61.878c12.478-.538 22.443-2.015 28.625-5.568c5.266-3.025 8.892-7.468 10.952-16.584c-5.457-2.305-23.53-9.945-47.185-19.853c-13.495-5.652-27.03-11.294-37.236-15.494c-5.103-2.1-9.382-3.842-12.37-5.027a161 161 0 0 0-3.397-1.317c-.208-.077-.253-.09-.367-.13c-.157.023-.3.105-1.897-.677c-.994-.486-4.692-10.586-4.692-10.588c0 0 5.642-6.027 6.47-6.234c2.54-.635 2.98-.25 3.483-.18c.2.028.253.05.388.074c.13.016.294.036.637.073c.89.095 2.327.236 4.183.41c3.713.345 9.13.827 15.67 1.397c13.082 1.14 30.68 2.633 48.37 4.112c17.69 1.477 35.475 2.942 48.945 4.03c6.734.544 12.392.992 16.406 1.3c2.006.155 3.606.275 4.702.352c.445.03.74.05 1 .065c7.954-.59 12.096-2.93 14.38-5.373c2.315-2.48 3.274-5.563 3.075-9.477c-.392-7.7-6.855-16.7-13.162-18.697l-125.047-16.39a9 9 0 0 1 .357-17.886s34.4-3.114 69.246-6.35c17.425-1.62 34.963-3.27 48.35-4.575c6.695-.654 12.355-1.22 16.42-1.652c2.03-.215 3.67-.397 4.798-.533c.516-.062 1.142-.195 1.516-.27c10.906-3.095 16.196-7.17 18.164-10.054c2.01-2.944 1.993-5.088.517-8.644c-2.946-7.1-15.285-15.783-23.27-16.322l-140.36-3.662a9 9 0 0 1-1.555-17.817s30.514-6.195 61.904-12.542c15.695-3.174 31.608-6.386 44.04-8.88c12.434-2.496 20.85-4.184 23.35-4.617c9.49-1.643 13.86-5.275 16.143-9.164c2.282-3.888 2.655-8.88.996-14.175c-2.902-9.267-11.46-17.814-23.172-18.067a26 26 0 0 0-5.204.422l-.19.03l-148.954 23.665c-7.51 10.38-14.5 15.897-23.953 22.977c-2.022 57.078-12.448 85.543-27.33 100.578c-15.283 15.436-34.4 14.424-40.335 15.908l-4.368-17.46c12.134-3.035 21.968-1.066 31.91-11.11s20.786-34.636 22.338-92.803a9 9 0 0 1 3.606-6.965c12.425-9.295 17.212-12.277 25.073-23.886l35.527-78.43c-1.064-7.994-5.013-11.687-9.64-13.893c-2.5-1.192-5.197-1.74-7.043-1.79z" vector-effect="non-scaling-stroke" stroke="none"/>
        </g>
      </g>
    </g>
    <g transform="translate(-330, -30)">
      <text id="ITEM_3_HEAD" text-anchor="start" font-weight="bold" font-size="27" fill="var(--primary-text)" x="0.0" y="-10.0" data-bg-id="ITEM_3_BG" fill-opacity="1.0" stroke="none" style="font-size: 31px; font-family: 'Segoe UI Variable Display', 'Aptos Display', 'Inter', 'Segoe UI', Helvetica, Arial, sans-serif; font-weight: 700; font-kerning: normal; font-feature-settings: &quot;kern&quot; 1, &quot;liga&quot; 1; letter-spacing:-0.4px;" data-final-font-size="31">
        <tspan x="0.0" dy="27.52px">Deliberate Pranks</tspan>
      </text>
      <rect id="ITEM_3_HEAD_FRAME" x="0" y="-10" width="846" height="38" fill="none"/>
      <text id="ITEM_3_BODY" text-anchor="start" font-size="19" fill="var(--primary-text)" x="0.0" y="20.0" data-bg-id="ITEM_3_BG" style="font-size: 23px; font-family: 'Segoe UI Variable Text', 'Aptos', 'Inter', 'Segoe UI', Helvetica, Arial, sans-serif; font-weight: 400; font-kerning: normal; font-feature-settings: &quot;kern&quot; 1, &quot;liga&quot; 1;" data-final-font-size="23">
        <tspan x="0.0" dy="27.91px">Teenagers wrap bodies in foil to mimic humanoid figures</tspan>
      </text>
      <rect id="ITEM_3_BODY_FRAME" x="0" y="20" width="846" height="74" fill="none"/>
    </g>
  </g>
  <g transform="translate(960.0, 660.0)">
    <rect id="ITEM_4_BG" x="-600" y="-40" width="1200" height="126" rx="24" fill="var(--accent-1)" stroke="var(--accent-4)" filter="url(#svge3fceede-shadow)" stroke-width="3" fill-opacity="0.4"/>
    <g transform="translate(-480.0, 0.0)">
      <circle r="45" fill="var(--background)" opacity="0.3"/>
      <circle id="ITEM_4_PAD" cx="0" cy="0" r="38" fill="var(--icon-pad-bg)" stroke="var(--accent-1)" opacity="1" fill-opacity="0.9" stroke-width="2" stroke-opacity="0.72" data-badge-layer="pad"/>
      <circle id="ITEM_4_PAD_INNER" cx="0" cy="0" r="29.64" fill="var(--accent-1)" fill-opacity="0.12" stroke="none" data-badge-layer="tint"/>
      <circle cx="0" cy="0" r="30" fill="none" stroke="var(--accent-3)" stroke-width="3" stroke-dasharray="6 4" display="none" data-suppressed-decoration="redundant-badge-ring"/>
      <g id="ITEM_4_ICON" transform="translate(-31, -31)" data-icon-size="62" stroke-linecap="round" stroke-linejoin="round" data-badge-treatment="clean">
        <g transform="translate(-5.7407407407407405,-5.7407407407407405) scale(3.0617283950617282)" vector-effect="non-scaling-stroke" stroke-width="2.46" stroke-linecap="round" stroke-linejoin="round" stroke-opacity="1.0">
          <path d="M9 20h6" vector-effect="non-scaling-stroke" fill="none" stroke="#f1f5f9"/>
          <path d="M12 20v-8" vector-effect="non-scaling-stroke" fill="none" stroke="#f1f5f9"/>
          <path d="M7.325 7.35l-2.325 4.65h7m4 0h3l-4 -8h-6l-.338 .676" vector-effect="non-scaling-stroke" fill="none" stroke="#f1f5f9"/>
          <path d="M3 3l18 18" vector-effect="non-scaling-stroke" fill="none" stroke="#f1f5f9"/>
        </g>
      </g>
    </g>
    <g transform="translate(-330, -30)">
      <text id="ITEM_4_HEAD" text-anchor="start" font-weight="bold" font-size="27" fill="var(--primary-text)" x="0.0" y="-10.0" data-bg-id="ITEM_4_BG" fill-opacity="1.0" stroke="none" style="font-size: 31px; font-family: 'Segoe UI Variable Display', 'Aptos Display', 'Inter', 'Segoe UI', Helvetica, Arial, sans-serif; font-weight: 700; font-kerning: normal; font-feature-settings: &quot;kern&quot; 1, &quot;liga&quot; 1; letter-spacing:-0.4px;" data-final-font-size="31">
        <tspan x="0.0" dy="27.52px">Autokinetic Illusion</tspan>
      </text>
      <rect id="ITEM_4_HEAD_FRAME" x="0" y="-10" width="846" height="38" fill="none"/>
      <text id="ITEM_4_BODY" text-anchor="start" font-size="19" fill="var(--primary-text)" x="0.0" y="20.0" data-bg-id="ITEM_4_BG" style="font-size: 23px; font-family: 'Segoe UI Variable Text', 'Aptos', 'Inter', 'Segoe UI', Helvetica, Arial, sans-serif; font-weight: 400; font-kerning: normal; font-feature-settings: &quot;kern&quot; 1, &quot;liga&quot; 1;" data-final-font-size="23">
        <tspan x="0.0" dy="27.91px">Pilots mistake fixed ground lights for moving objects</tspan>
      </text>
      <rect id="ITEM_4_BODY_FRAME" x="0" y="20" width="846" height="74" fill="none"/>
    </g>
  </g>
  <g transform="translate(960.0, 795.0)">
    <rect id="ITEM_5_BG" x="-600" y="-40" width="1200" height="126" rx="24" fill="var(--accent-2)" stroke="var(--accent-5)" filter="url(#svge3fceede-shadow)" stroke-width="3" fill-opacity="0.4"/>
    <g transform="translate(-480.0, 0.0)">
      <circle r="45" fill="var(--background)" opacity="0.3"/>
      <circle id="ITEM_5_PAD" cx="0" cy="0" r="38" fill="var(--icon-pad-bg)" stroke="var(--accent-2)" opacity="1" fill-opacity="0.9" stroke-width="2" stroke-opacity="0.72" data-badge-layer="pad"/>
      <circle id="ITEM_5_PAD_INNER" cx="0" cy="0" r="29.64" fill="var(--accent-2)" fill-opacity="0.12" stroke="none" data-badge-layer="tint"/>
      <circle cx="0" cy="0" r="30" fill="none" stroke="var(--accent-4)" stroke-width="3" stroke-dasharray="6 4" display="none" data-suppressed-decoration="redundant-badge-ring"/>
      <g id="ITEM_5_ICON" transform="translate(-31, -31)" data-icon-size="62" stroke-linecap="round" stroke-linejoin="round" data-badge-treatment="clean">
        <g transform="translate(-5.7407407407407405,-5.7407407407407405) scale(3.0617283950617282)" vector-effect="non-scaling-stroke" stroke-width="2.46" stroke-linecap="round" stroke-linejoin="round" stroke-opacity="1.0">
          <path d="M21 3l-5 9h5l-6.891 7.086a6.5 6.5 0 1 1 -8.855 -9.506l7.746 -6.58l-1 5l9 -5z" vector-effect="non-scaling-stroke" fill="none" stroke="#f1f5f9"/>
          <path d="M9.5 14.5m-2.5 0a2.5 2.5 0 1 0 5 0a2.5 2.5 0 1 0 -5 0" vector-effect="non-scaling-stroke" fill="none" stroke="#f1f5f9"/>
        </g>
      </g>
    </g>
    <g transform="translate(-330, -30)">
      <text id="ITEM_5_HEAD" text-anchor="start" font-weight="bold" font-size="27" fill="var(--primary-text)" x="0.0" y="-10.0" data-bg-id="ITEM_5_BG" fill-opacity="1.0" stroke="none" style="font-size: 31px; font-family: 'Segoe UI Variable Display', 'Aptos Display', 'Inter', 'Segoe UI', Helvetica, Arial, sans-serif; font-weight: 700; font-kerning: normal; font-feature-settings: &quot;kern&quot; 1, &quot;liga&quot; 1; letter-spacing:-0.4px;" data-final-font-size="31">
        <tspan x="0.0" dy="27.52px">Meteors and Events</tspan>
      </text>
      <rect id="ITEM_5_HEAD_FRAME" x="0" y="-10" width="846" height="38" fill="none"/>
      <text id="ITEM_5_BODY" text-anchor="start" font-size="19" fill="var(--primary-text)" x="0.0" y="20.0" data-bg-id="ITEM_5_BG" style="font-size: 23px; font-family: 'Segoe UI Variable Text', 'Aptos', 'Inter', 'Segoe UI', Helvetica, Arial, sans-serif; font-weight: 400; font-kerning: normal; font-feature-settings: &quot;kern&quot; 1, &quot;liga&quot; 1;" data-final-font-size="23">
        <tspan x="0.0" dy="27.91px">Fast-moving lights fragment suddenly in the night sky</tspan>
      </text>
      <rect id="ITEM_5_BODY_FRAME" x="0" y="20" width="846" height="74" fill="none"/>
    </g>
  </g>
  <g transform="translate(960.0, 930.0)">
    <rect id="ITEM_6_BG" x="-600" y="-40" width="1200" height="126" rx="24" fill="var(--accent-6)" stroke="var(--accent-6)" filter="url(#svge3fceede-shadow)" stroke-width="3" fill-opacity="0.4"/>
    <g transform="translate(-480.0, 0.0)">
      <circle r="45" fill="var(--background)" opacity="0.3"/>
      <circle id="ITEM_6_PAD" cx="0" cy="0" r="38" fill="var(--icon-pad-bg)" stroke="var(--accent-6)" opacity="1" fill-opacity="0.9" stroke-width="2" stroke-opacity="0.72" data-badge-layer="pad"/>
      <circle id="ITEM_6_PAD_INNER" cx="0" cy="0" r="29.64" fill="var(--accent-6)" fill-opacity="0.12" stroke="none" data-badge-layer="tint"/>
      <circle cx="0" cy="0" r="30" fill="none" stroke="var(--accent-5)" stroke-width="3" stroke-dasharray="6 4" display="none" data-suppressed-decoration="redundant-badge-ring"/>
      <g id="ITEM_6_ICON" transform="translate(-31, -31)" data-icon-size="62" stroke-linecap="round" stroke-linejoin="round" data-badge-treatment="clean">
        <g transform="translate(-4.428571428571429,-4.4285714285714315) scale(2.2142857142857144)">
          <path d="M18.6992 4.62713L20.9469 8.93616C21.288 9.57602 21.9102 10.0259 22.6326 10.1259L27.3788 10.7758C29.9175 11.1257 30.9008 14.255 29.0244 15.9946L25.7733 18.9939C25.2114 19.5138 24.9505 20.2836 25.091 21.0334L25.8837 25.4324C26.3252 27.8819 23.7765 29.7915 21.5389 28.6717L17.0034 26.4222C16.3713 26.1123 15.6287 26.1123 14.9966 26.4222L10.4611 28.6717C8.22347 29.7815 5.67477 27.8819 6.11628 25.4324L6.90898 21.0334C7.04946 20.2836 6.78857 19.5138 6.22665 18.9939L2.97556 15.9946C1.09916 14.265 2.08251 11.1257 4.62118 10.7758L9.36737 10.1259C10.0898 10.0259 10.722 9.58601 11.0531 8.93616L13.3008 4.62713C14.4447 2.45762 17.5653 2.45762 18.6992 4.62713Z" fill="#FCD53F"/>
        </g>
      </g>
    </g>
    <g transform="translate(-330, -30)">
      <text id="ITEM_6_HEAD" text-anchor="start" font-weight="bold" font-size="27" fill="var(--primary-text)" x="0.0" y="-10.0" data-bg-id="ITEM_6_BG" fill-opacity="1.0" stroke="none" style="font-size: 31px; font-family: 'Segoe UI Variable Display', 'Aptos Display', 'Inter', 'Segoe UI', Helvetica, Arial, sans-serif; font-weight: 700; font-kerning: normal; font-feature-settings: &quot;kern&quot; 1, &quot;liga&quot; 1; letter-spacing:-0.4px;" data-final-font-size="31">
        <tspan x="0.0" dy="27.52px">Ambiguous Stars</tspan>
      </text>
      <rect id="ITEM_6_HEAD_FRAME" x="0" y="-10" width="846" height="38" fill="none"/>
      <text id="ITEM_6_BODY" text-anchor="start" font-size="19" fill="var(--primary-text)" x="0.0" y="20.0" data-bg-id="ITEM_6_BG" style="font-size: 23px; font-family: 'Segoe UI Variable Text', 'Aptos', 'Inter', 'Segoe UI', Helvetica, Arial, sans-serif; font-weight: 400; font-kerning: normal; font-feature-settings: &quot;kern&quot; 1, &quot;liga&quot; 1;" data-final-font-size="23">
        <tspan x="0.0" dy="27.91px">Stationary celestial points seem to hover near the horizon</tspan>
      </text>
      <rect id="ITEM_6_BODY_FRAME" x="0" y="20" width="846" height="74" fill="none"/>
    </g>
  </g>
  <text id="SOURCE_NOTE" x="134.0" y="1058.0" fill="var(--muted-text)" opacity="0.88" style="font-family: var(--font-family); font-size: 20px;">Source: Introduction</text>
  <text id="EDITORIAL_NOTE" x="1786.0" y="1058.0" fill="var(--semantic-uncertain)" opacity="0.92" style="font-family: var(--font-family); font-size: 20px;" text-anchor="end">Interpretations remain disputed; wording reflects source uncertainty.</text>
</svg>
